# xmcd
#
# Track frame offsets: 
#        150
#        13894
#        31796
#        49317
#        65469
#        76799
#        95019
#        116690
#        134341
#        153972
#        171067
#        190257
#        207485
#
# Disc length: 2891 seconds
#
# Revision: 1
# Processed by: cddbd v1.5.2PL0 Copyright (c) Steve Scherf et al.
# Submitted via: ExactAudioCopyFreeDBPlugin 1.0
#
DISCID=ad0b490d
DTITLE=Russell Morris - Red Dirt - Red Heart
DYEAR=2015
DGENRE=Blues
TTITLE0=Cut You Loose
TTITLE1=I Go Around
TTITLE2=Bennelong
TTITLE3=Goanna Man
TTITLE4=Lonesome Road
TTITLE5=Alice
TTITLE6=Kadaitcha Man
TTITLE7=God Loves a Sinner
TTITLE8=Moondyne Joe
TTITLE9=Tiger Snake
TTITLE10=Ben Hall
TTITLE11=Pemulwuy
TTITLE12=Nullabour Sand
EXTD=YEAR: 2015
EXTT0=
EXTT1=
EXTT2=
EXTT3=
EXTT4=
EXTT5=
EXTT6=
EXTT7=
EXTT8=
EXTT9=
EXTT10=
EXTT11=
EXTT12=
PLAYORDER=
